<svg width="59" height="15" viewBox="0 0 59 15" fill="none" xmlns="http://www.w3.org/2000/svg">
<path d="M2.88281 8.0586V9.7461H4.75781V10.9238H0.117187V9.7461H1.34766V5.64453H0V4.46094H2.89454V6.11914H3.14649C3.42774 4.83594 4.08985 4.29102 5.3086 4.29102C5.67188 4.29102 6 4.33789 6.22852 4.42578V6.16602C5.93555 6.05469 5.51367 5.97852 5.15039 5.97852C3.62695 5.97852 2.88281 6.66992 2.88281 8.0586ZM8.51367 13.2558C8.23828 13.2558 7.94531 13.25 7.89843 13.2441V11.9316C7.93945 11.9433 8.16796 11.9492 8.25585 11.9492C8.90625 11.9492 9.26367 11.7265 9.41597 11.2168L9.48048 10.9707L7.20704 4.46094H8.97657L10.4063 9.44727H10.5059L11.9356 4.46094H13.6348L11.4082 11.0058C10.8516 12.6699 10.0957 13.2558 8.51367 13.2558ZM20.7188 4.46094V10.9238H19.166V9.83985H19.0664C18.75 10.6191 18.0528 11.0644 17.1211 11.0644C15.7149 11.0644 14.9649 10.2207 14.9649 8.64453V4.46094H16.5703V8.25781C16.5703 9.20703 16.9512 9.65821 17.7657 9.65821C18.586 9.65821 19.1192 9.08985 19.1192 8.19922V4.46094H20.7188ZM22.6465 6.34766C22.6465 5.09375 23.6543 4.3086 25.2539 4.3086C26.8184 4.3086 27.7735 5.01172 27.8496 6.22461H26.3379C26.2617 5.79688 25.8399 5.53321 25.2422 5.53321C24.6328 5.53321 24.2285 5.8086 24.2285 6.21875C24.2285 6.57031 24.4981 6.78125 25.125 6.91016L26.127 7.11524C27.4336 7.38477 28.0137 7.94141 28.0137 8.92578C28.0137 10.2324 26.9473 11.0586 25.2657 11.0586C23.6133 11.0586 22.5938 10.3496 22.5059 9.13672H24.0879C24.1875 9.58203 24.6211 9.82813 25.2891 9.82813C25.9453 9.82813 26.3672 9.55274 26.3672 9.13086C26.3672 8.76758 26.1211 8.5918 25.4414 8.44531L24.4746 8.24024C23.2617 7.97656 22.6465 7.34375 22.6465 6.34766ZM35.5547 4.46094V10.9238H34.002V9.83985H33.9024C33.586 10.6191 32.8887 11.0644 31.9571 11.0644C30.5508 11.0644 29.8008 10.2207 29.8008 8.64453V4.46094H31.4063V8.25781C31.4063 9.20703 31.7871 9.65821 32.6016 9.65821C33.4219 9.65821 33.9551 9.08985 33.9551 8.19922V4.46094H35.5547ZM40.0957 11.0351C39.3867 11.0351 38.8067 10.4375 38.8067 9.7168C38.8067 8.99024 39.3867 8.39258 40.0957 8.39258C40.8047 8.39258 41.3848 8.99024 41.3848 9.7168C41.3848 10.4375 40.8047 11.0351 40.0957 11.0351ZM50.3672 10.9238H44.7832V9.64649H46.8574V5.74414H44.8887V4.46094H48.416V9.64649H50.3672V10.9238ZM54.2168 11.0234C52.7403 11.0234 51.8614 10.0039 51.8614 8.2461V7.13281C51.8614 5.375 52.7403 4.35547 54.2168 4.35547C55.1485 4.35547 55.793 4.78906 56.0098 5.5625H56.127V2H57.8028V10.9238H56.1504V9.81055H56.0274C55.8047 10.5957 55.166 11.0234 54.2168 11.0234ZM54.8379 9.63477C55.6641 9.63477 56.168 9.08985 56.168 8.19922V7.13281C56.168 6.24219 55.6641 5.70313 54.8379 5.70313C54.0059 5.70313 53.4961 6.24219 53.4961 7.13281V8.19922C53.4961 9.08985 54.0059 9.63477 54.8379 9.63477Z" fill="#141a29"/>
<circle cx="47.1499" cy="2.25" r="1.25" fill="#ff87d7"/>
</svg>
